<svg xmlns="http://www.w3.org/2000/svg" xmlns:xlink="http://www.w3.org/1999/xlink" width="500" zoomAndPan="magnify" viewBox="0 0 375 374.999991" height="500" preserveAspectRatio="xMidYMid meet" version="1.0"><defs><g/><clipPath id="938cee2d28"><path d="M 39.683594 39.683594 L 335.316406 39.683594 L 335.316406 335.316406 L 39.683594 335.316406 Z M 39.683594 39.683594 " clip-rule="nonzero"/></clipPath><clipPath id="fbb9cd72b0"><path d="M 187.5 39.683594 C 105.863281 39.683594 39.683594 105.863281 39.683594 187.5 C 39.683594 269.136719 105.863281 335.316406 187.5 335.316406 C 269.136719 335.316406 335.316406 269.136719 335.316406 187.5 C 335.316406 105.863281 269.136719 39.683594 187.5 39.683594 Z M 187.5 39.683594 " clip-rule="nonzero"/></clipPath><clipPath id="f36f73e932"><path d="M 63.148438 138.511719 L 141.804688 138.511719 L 141.804688 229.261719 L 63.148438 229.261719 Z M 63.148438 138.511719 " clip-rule="nonzero"/></clipPath><clipPath id="0f71da1177"><path d="M 77.777344 164.738281 L 127.277344 164.738281 L 127.277344 212.738281 L 77.777344 212.738281 Z M 77.777344 164.738281 " clip-rule="nonzero"/></clipPath><clipPath id="1053c5b6d7"><path d="M 97.917969 188.675781 L 107.035156 188.675781 L 107.035156 225.675781 L 97.917969 225.675781 Z M 97.917969 188.675781 " clip-rule="nonzero"/></clipPath><clipPath id="404f875b89"><path d="M 101.667969 188.675781 L 103.285156 188.675781 C 104.28125 188.675781 105.234375 189.070312 105.9375 189.773438 C 106.640625 190.476562 107.035156 191.433594 107.035156 192.425781 L 107.035156 221.90625 C 107.035156 222.898438 106.640625 223.851562 105.9375 224.554688 C 105.234375 225.257812 104.28125 225.65625 103.285156 225.65625 L 101.667969 225.65625 C 100.675781 225.65625 99.71875 225.257812 99.015625 224.554688 C 98.3125 223.851562 97.917969 222.898438 97.917969 221.90625 L 97.917969 192.425781 C 97.917969 191.433594 98.3125 190.476562 99.015625 189.773438 C 99.71875 189.070312 100.675781 188.675781 101.667969 188.675781 Z M 101.667969 188.675781 " clip-rule="nonzero"/></clipPath><clipPath id="1f7d4774df"><path d="M 258 217.816406 L 268 217.816406 L 268 228 L 258 228 Z M 258 217.816406 " clip-rule="nonzero"/></clipPath><clipPath id="54b7009cd1"><path d="M 258 223 L 268.585938 223 L 268.585938 229.066406 L 258 229.066406 Z M 258 223 " clip-rule="nonzero"/></clipPath></defs><rect x="-37.5" width="450" fill="#ffffff" y="-37.499999" height="449.999989" fill-opacity="1"/><rect x="-37.5" width="450" fill="#f3f4f0" y="-37.499999" height="449.999989" fill-opacity="1"/><g clip-path="url(#938cee2d28)"><g clip-path="url(#fbb9cd72b0)"><path fill="#0097b2" d="M 39.683594 39.683594 L 335.316406 39.683594 L 335.316406 335.316406 L 39.683594 335.316406 Z M 39.683594 39.683594 " fill-opacity="1" fill-rule="nonzero"/></g></g><g clip-path="url(#f36f73e932)"><path fill="#ffffff" d="M 76.894531 229.003906 L 128.316406 229.003906 C 129.199219 229.003906 130.074219 228.917969 130.9375 228.742188 C 131.804688 228.570312 132.644531 228.316406 133.457031 227.976562 C 134.273438 227.640625 135.046875 227.226562 135.78125 226.734375 C 136.511719 226.246094 137.191406 225.6875 137.816406 225.0625 C 138.441406 224.441406 138.996094 223.761719 139.488281 223.027344 C 139.976562 222.292969 140.390625 221.519531 140.730469 220.707031 C 141.066406 219.890625 141.324219 219.050781 141.496094 218.183594 C 141.667969 217.320312 141.757812 216.445312 141.757812 215.566406 L 141.757812 179.515625 C 141.761719 177.804688 141.441406 176.152344 140.796875 174.5625 C 140.15625 172.972656 139.238281 171.5625 138.042969 170.332031 L 110.535156 141.886719 C 110.019531 141.351562 109.460938 140.875 108.851562 140.453125 C 108.242188 140.035156 107.59375 139.679688 106.914062 139.390625 C 106.234375 139.097656 105.53125 138.878906 104.804688 138.730469 C 104.078125 138.585938 103.347656 138.511719 102.605469 138.511719 C 101.867188 138.511719 101.132812 138.585938 100.40625 138.730469 C 99.683594 138.878906 98.976562 139.097656 98.296875 139.390625 C 97.617188 139.679688 96.96875 140.035156 96.359375 140.453125 C 95.75 140.875 95.191406 141.351562 94.675781 141.886719 L 64.605469 172.984375 C 64.417969 173.175781 64.25 173.386719 64.101562 173.613281 C 63.957031 173.839844 63.832031 174.074219 63.730469 174.328125 C 63.632812 174.578125 63.558594 174.835938 63.507812 175.097656 C 63.460938 175.363281 63.4375 175.632812 63.441406 175.902344 C 63.445312 176.167969 63.476562 176.4375 63.53125 176.699219 C 63.589844 176.960938 63.671875 177.21875 63.777344 177.464844 C 63.882812 177.710938 64.015625 177.945312 64.167969 178.167969 C 64.320312 178.390625 64.496094 178.59375 64.6875 178.78125 C 64.882812 178.96875 65.09375 179.136719 65.320312 179.28125 C 65.546875 179.425781 65.785156 179.550781 66.035156 179.648438 C 66.285156 179.746094 66.542969 179.820312 66.808594 179.867188 C 67.074219 179.914062 67.339844 179.9375 67.609375 179.929688 C 67.878906 179.925781 68.144531 179.894531 68.410156 179.835938 C 68.671875 179.777344 68.925781 179.695312 69.171875 179.589844 C 69.417969 179.480469 69.652344 179.347656 69.875 179.195312 C 70.09375 179.039062 70.300781 178.867188 70.484375 178.671875 L 100.558594 147.582031 C 100.824219 147.300781 101.136719 147.082031 101.492188 146.929688 C 101.847656 146.773438 102.21875 146.699219 102.605469 146.699219 C 102.992188 146.699219 103.363281 146.773438 103.71875 146.929688 C 104.074219 147.082031 104.386719 147.300781 104.652344 147.582031 L 132.160156 176.019531 C 133.105469 177 133.574219 178.167969 133.566406 179.527344 L 133.566406 215.566406 C 133.5625 215.910156 133.53125 216.25 133.460938 216.589844 C 133.394531 216.929688 133.292969 217.257812 133.164062 217.574219 C 133.03125 217.894531 132.867188 218.199219 132.675781 218.484375 C 132.484375 218.773438 132.265625 219.039062 132.023438 219.28125 C 131.777344 219.523438 131.511719 219.742188 131.226562 219.933594 C 130.9375 220.128906 130.636719 220.289062 130.316406 220.421875 C 129.996094 220.554688 129.667969 220.652344 129.332031 220.722656 C 128.992188 220.789062 128.652344 220.824219 128.304688 220.824219 L 76.882812 220.824219 C 76.613281 220.824219 76.347656 220.851562 76.085938 220.902344 C 75.820312 220.953125 75.566406 221.03125 75.316406 221.136719 C 75.070312 221.238281 74.832031 221.363281 74.609375 221.511719 C 74.386719 221.664062 74.179688 221.832031 73.992188 222.023438 C 73.800781 222.210938 73.628906 222.417969 73.480469 222.640625 C 73.332031 222.863281 73.207031 223.101562 73.105469 223.347656 C 73 223.597656 72.921875 223.851562 72.871094 224.117188 C 72.820312 224.378906 72.792969 224.644531 72.792969 224.914062 C 72.792969 225.183594 72.820312 225.449219 72.871094 225.710938 C 72.921875 225.976562 73 226.230469 73.105469 226.480469 C 73.207031 226.726562 73.332031 226.964844 73.480469 227.1875 C 73.628906 227.410156 73.800781 227.617188 73.992188 227.804688 C 74.179688 227.996094 74.386719 228.164062 74.609375 228.316406 C 74.832031 228.464844 75.070312 228.589844 75.316406 228.691406 C 75.566406 228.796875 75.820312 228.875 76.085938 228.925781 C 76.347656 228.976562 76.613281 229.003906 76.882812 229.003906 Z M 76.894531 229.003906 " fill-opacity="1" fill-rule="nonzero"/></g><g clip-path="url(#0f71da1177)"><path fill="#f8cf2c" d="M 127.148438 191.644531 L 109.511719 191.644531 L 121.433594 203.570312 L 117.496094 207.507812 L 105.347656 195.355469 L 105.347656 212.609375 L 99.777344 212.609375 L 99.777344 195.5625 L 87.125 208.21875 L 82.929688 204.023438 L 95.308594 191.644531 L 77.796875 191.644531 L 77.796875 185.703125 L 95.703125 185.703125 L 83.652344 173.652344 L 87.589844 169.714844 L 99.777344 181.914062 L 99.777344 164.738281 L 105.347656 164.738281 L 105.347656 181.597656 L 117.820312 169.121094 L 122.015625 173.324219 L 109.640625 185.703125 L 127.148438 185.703125 Z M 127.148438 191.644531 " fill-opacity="1" fill-rule="nonzero"/></g><g clip-path="url(#1053c5b6d7)"><g clip-path="url(#404f875b89)"><path fill="#ffffff" d="M 97.917969 188.675781 L 107.035156 188.675781 L 107.035156 225.640625 L 97.917969 225.640625 Z M 97.917969 188.675781 " fill-opacity="1" fill-rule="nonzero"/></g></g><path fill="#99aab5" d="M 258.308594 223.769531 L 259.019531 222.722656 L 259.960938 223.664062 L 261.21875 223.035156 L 262.160156 223.980469 L 263.417969 222.09375 L 264.675781 223.035156 L 265.621094 222.722656 L 266.246094 223.664062 L 267.191406 222.722656 L 267.820312 223.980469 L 267.191406 226.179688 L 263.734375 227.75 L 260.273438 227.121094 L 258.390625 225.238281 Z M 258.308594 223.769531 " fill-opacity="1" fill-rule="nonzero"/><g clip-path="url(#1f7d4774df)"><path fill="#ffcc4d" d="M 266.863281 222.316406 C 266.871094 222.226562 266.875 222.136719 266.875 222.042969 C 266.875 220.175781 265.515625 218.628906 263.734375 218.328125 C 264.109375 218.246094 264.371094 218.167969 264.046875 218.007812 C 263.695312 217.832031 263.347656 218.046875 263.105469 218.273438 C 262.863281 218.046875 262.511719 217.832031 262.160156 218.007812 C 261.835938 218.167969 262.101562 218.246094 262.472656 218.328125 C 260.691406 218.628906 259.332031 220.175781 259.332031 222.042969 C 259.332031 222.136719 259.339844 222.226562 259.347656 222.316406 C 259.195312 224.390625 257.363281 227.4375 263.105469 227.4375 C 268.84375 227.4375 267.015625 224.390625 266.863281 222.316406 Z M 266.863281 222.316406 " fill-opacity="1" fill-rule="nonzero"/></g><path fill="#f4900c" d="M 264.046875 222.09375 C 264.046875 222.613281 263.625 222.722656 263.105469 222.722656 C 262.582031 222.722656 262.160156 222.613281 262.160156 222.09375 C 262.160156 221.574219 262.582031 221.148438 263.105469 221.148438 C 263.625 221.148438 264.046875 221.574219 264.046875 222.09375 Z M 264.046875 222.09375 " fill-opacity="1" fill-rule="nonzero"/><path fill="#662113" d="M 261.53125 221.308594 C 261.53125 221.4375 261.488281 221.546875 261.394531 221.640625 C 261.300781 221.734375 261.191406 221.777344 261.0625 221.777344 C 260.929688 221.777344 260.820312 221.734375 260.726562 221.640625 C 260.636719 221.546875 260.589844 221.4375 260.589844 221.308594 C 260.589844 221.175781 260.636719 221.066406 260.726562 220.972656 C 260.820312 220.882812 260.929688 220.835938 261.0625 220.835938 C 261.191406 220.835938 261.300781 220.882812 261.394531 220.972656 C 261.488281 221.066406 261.53125 221.175781 261.53125 221.308594 Z M 261.53125 221.308594 " fill-opacity="1" fill-rule="nonzero"/><path fill="#662113" d="M 265.621094 221.308594 C 265.621094 221.4375 265.574219 221.546875 265.480469 221.640625 C 265.390625 221.734375 265.277344 221.777344 265.148438 221.777344 C 265.015625 221.777344 264.90625 221.734375 264.8125 221.640625 C 264.722656 221.546875 264.675781 221.4375 264.675781 221.308594 C 264.675781 221.175781 264.722656 221.066406 264.8125 220.972656 C 264.90625 220.882812 265.015625 220.835938 265.148438 220.835938 C 265.277344 220.835938 265.390625 220.882812 265.480469 220.972656 C 265.574219 221.066406 265.621094 221.175781 265.621094 221.308594 Z M 265.621094 221.308594 " fill-opacity="1" fill-rule="nonzero"/><g clip-path="url(#54b7009cd1)"><path fill="#ffffff" d="M 267.191406 225.550781 L 266.246094 225.238281 L 264.992188 227.121094 L 264.046875 225.550781 L 263.417969 226.179688 L 262.160156 225.550781 L 261.21875 226.808594 L 260.273438 224.921875 L 259.332031 225.550781 L 258.296875 223.109375 C 258.152344 223.535156 258.074219 223.984375 258.074219 224.449219 C 258.074219 226.96875 260.328125 229.007812 263.105469 229.007812 C 265.882812 229.007812 268.132812 226.96875 268.132812 224.449219 C 268.132812 224.058594 268.074219 223.683594 267.972656 223.320312 Z M 267.191406 225.550781 " fill-opacity="1" fill-rule="nonzero"/></g><g fill="#ffffff" fill-opacity="1"><g transform="translate(149.479286, 194.249987)"><g><path d="M 8.78125 -22.03125 L 0.578125 -22.03125 L 0.578125 -27.296875 L 22.8125 -27.296875 L 22.8125 -22.03125 L 14.625 -22.03125 L 14.625 0 L 8.78125 0 Z M 8.78125 -22.03125 "/></g></g></g><g fill="#ffffff" fill-opacity="1"><g transform="translate(172.021304, 194.249987)"><g><path d="M 2.734375 -27.296875 L 8.578125 -27.296875 L 8.578125 -16.375 L 19.5 -16.375 L 19.5 -27.296875 L 25.34375 -27.296875 L 25.34375 0 L 19.5 0 L 19.5 -11.109375 L 8.578125 -11.109375 L 8.578125 0 L 2.734375 0 Z M 2.734375 -27.296875 "/></g></g></g><g fill="#ffffff" fill-opacity="1"><g transform="translate(199.243326, 194.249987)"><g><path d="M 2.734375 -27.296875 L 21.25 -27.296875 L 21.25 -22.03125 L 8.578125 -22.03125 L 8.578125 -16.1875 L 20.46875 -16.1875 L 20.46875 -11.3125 L 8.578125 -11.3125 L 8.578125 -5.265625 L 21.640625 -5.265625 L 21.640625 0 L 2.734375 0 Z M 2.734375 -27.296875 "/></g></g></g><g fill="#ffffff" fill-opacity="1"><g transform="translate(221.785342, 194.249987)"><g><path d="M 2.734375 -27.296875 L 14.4375 -27.296875 C 15.78125 -27.296875 17.015625 -27.082031 18.140625 -26.65625 C 19.273438 -26.226562 20.242188 -25.625 21.046875 -24.84375 C 21.859375 -24.0625 22.484375 -23.117188 22.921875 -22.015625 C 23.367188 -20.910156 23.59375 -19.679688 23.59375 -18.328125 C 23.59375 -16.609375 23.289062 -15.195312 22.6875 -14.09375 C 22.09375 -12.988281 21.445312 -12.113281 20.75 -11.46875 C 19.914062 -10.707031 18.976562 -10.132812 17.9375 -9.75 L 24.5625 0 L 17.9375 0 L 11.703125 -9.359375 L 8.578125 -9.359375 L 8.578125 0 L 2.734375 0 Z M 14.046875 -14.625 C 15.128906 -14.625 16.015625 -14.945312 16.703125 -15.59375 C 17.398438 -16.25 17.75 -17.160156 17.75 -18.328125 C 17.75 -19.492188 17.398438 -20.398438 16.703125 -21.046875 C 16.015625 -21.703125 15.128906 -22.03125 14.046875 -22.03125 L 8.578125 -22.03125 L 8.578125 -14.625 Z M 14.046875 -14.625 "/></g></g></g><g fill="#ffffff" fill-opacity="1"><g transform="translate(246.472364, 194.249987)"><g><path d="M 2.734375 -27.296875 L 11.3125 -27.296875 L 17.75 -8.390625 L 17.9375 -8.390625 L 24.375 -27.296875 L 32.953125 -27.296875 L 32.953125 0 L 27.109375 0 L 27.109375 -19.3125 L 26.90625 -19.3125 L 20.28125 0 L 15.40625 0 L 8.78125 -19.3125 L 8.578125 -19.3125 L 8.578125 0 L 2.734375 0 Z M 2.734375 -27.296875 "/></g></g></g><g fill="#ffffff" fill-opacity="1"><g transform="translate(281.299399, 194.249987)"><g><path d="M 14.4375 0.390625 C 12.476562 0.390625 10.707031 0.078125 9.125 -0.546875 C 7.539062 -1.171875 6.1875 -2.078125 5.0625 -3.265625 C 3.945312 -4.460938 3.082031 -5.929688 2.46875 -7.671875 C 1.863281 -9.421875 1.5625 -11.414062 1.5625 -13.65625 C 1.5625 -15.882812 1.863281 -17.867188 2.46875 -19.609375 C 3.082031 -21.359375 3.945312 -22.828125 5.0625 -24.015625 C 6.1875 -25.210938 7.539062 -26.125 9.125 -26.75 C 10.707031 -27.375 12.476562 -27.6875 14.4375 -27.6875 C 16.382812 -27.6875 18.148438 -27.375 19.734375 -26.75 C 21.316406 -26.125 22.664062 -25.210938 23.78125 -24.015625 C 24.90625 -22.828125 25.769531 -21.359375 26.375 -19.609375 C 26.988281 -17.867188 27.296875 -15.882812 27.296875 -13.65625 C 27.296875 -11.414062 26.988281 -9.421875 26.375 -7.671875 C 25.769531 -5.929688 24.90625 -4.460938 23.78125 -3.265625 C 22.664062 -2.078125 21.316406 -1.171875 19.734375 -0.546875 C 18.148438 0.078125 16.382812 0.390625 14.4375 0.390625 Z M 14.4375 -4.875 C 15.445312 -4.875 16.378906 -5.054688 17.234375 -5.421875 C 18.097656 -5.785156 18.835938 -6.332031 19.453125 -7.0625 C 20.078125 -7.789062 20.566406 -8.707031 20.921875 -9.8125 C 21.273438 -10.914062 21.453125 -12.195312 21.453125 -13.65625 C 21.453125 -15.101562 21.273438 -16.378906 20.921875 -17.484375 C 20.566406 -18.597656 20.078125 -19.515625 19.453125 -20.234375 C 18.835938 -20.960938 18.097656 -21.507812 17.234375 -21.875 C 16.378906 -22.238281 15.445312 -22.421875 14.4375 -22.421875 C 13.414062 -22.421875 12.472656 -22.238281 11.609375 -21.875 C 10.753906 -21.507812 10.015625 -20.960938 9.390625 -20.234375 C 8.773438 -19.515625 8.289062 -18.597656 7.9375 -17.484375 C 7.582031 -16.378906 7.40625 -15.101562 7.40625 -13.65625 C 7.40625 -12.195312 7.582031 -10.914062 7.9375 -9.8125 C 8.289062 -8.707031 8.773438 -7.789062 9.390625 -7.0625 C 10.015625 -6.332031 10.753906 -5.785156 11.609375 -5.421875 C 12.472656 -5.054688 13.414062 -4.875 14.4375 -4.875 Z M 14.4375 -4.875 "/></g></g></g><g fill="#ffffff" fill-opacity="1"><g transform="translate(149.479286, 227.999985)"><g><path d="M 2.734375 -27.296875 L 21.25 -27.296875 L 21.25 -22.03125 L 8.578125 -22.03125 L 8.578125 -15.59375 L 20.28125 -15.59375 L 20.28125 -10.328125 L 8.578125 -10.328125 L 8.578125 0 L 2.734375 0 Z M 2.734375 -27.296875 "/></g></g></g><g fill="#ffffff" fill-opacity="1"><g transform="translate(171.241309, 227.999985)"><g><path d="M 9.5625 -27.296875 L 16.765625 -27.296875 L 26.515625 0 L 20.46875 0 L 18.71875 -5.0625 L 7.609375 -5.0625 L 5.84375 0 L -0.1875 0 Z M 16.8125 -10.328125 L 13.265625 -20.671875 L 13.0625 -20.671875 L 9.515625 -10.328125 Z M 16.8125 -10.328125 "/></g></g></g><g fill="#ffffff" fill-opacity="1"><g transform="translate(196.708335, 227.999985)"><g><path d="M 2.734375 -27.296875 L 14.4375 -27.296875 C 15.78125 -27.296875 17.015625 -27.082031 18.140625 -26.65625 C 19.273438 -26.226562 20.242188 -25.625 21.046875 -24.84375 C 21.859375 -24.0625 22.484375 -23.117188 22.921875 -22.015625 C 23.367188 -20.910156 23.59375 -19.679688 23.59375 -18.328125 C 23.59375 -16.609375 23.289062 -15.195312 22.6875 -14.09375 C 22.09375 -12.988281 21.445312 -12.113281 20.75 -11.46875 C 19.914062 -10.707031 18.976562 -10.132812 17.9375 -9.75 L 24.5625 0 L 17.9375 0 L 11.703125 -9.359375 L 8.578125 -9.359375 L 8.578125 0 L 2.734375 0 Z M 14.046875 -14.625 C 15.128906 -14.625 16.015625 -14.945312 16.703125 -15.59375 C 17.398438 -16.25 17.75 -17.160156 17.75 -18.328125 C 17.75 -19.492188 17.398438 -20.398438 16.703125 -21.046875 C 16.015625 -21.703125 15.128906 -22.03125 14.046875 -22.03125 L 8.578125 -22.03125 L 8.578125 -14.625 Z M 14.046875 -14.625 "/></g></g></g><g fill="#ffffff" fill-opacity="1"><g transform="translate(221.39535, 227.999985)"><g><path d="M 2.734375 -27.296875 L 11.3125 -27.296875 L 17.75 -8.390625 L 17.9375 -8.390625 L 24.375 -27.296875 L 32.953125 -27.296875 L 32.953125 0 L 27.109375 0 L 27.109375 -19.3125 L 26.90625 -19.3125 L 20.28125 0 L 15.40625 0 L 8.78125 -19.3125 L 8.578125 -19.3125 L 8.578125 0 L 2.734375 0 Z M 2.734375 -27.296875 "/></g></g></g></svg>